<svg xmlns="http://www.w3.org/2000/svg" viewBox="0 0 512 512" xml:space="preserve">
  <path d="M416 288.01c-17.664 0-32 14.336-32 32s14.336 32 32 32h96v-64h-96z"/>
  <path d="M416 256.01h64v-80c0-8.96-7.04-16-16-16h-32v-48c0-8.96-7.04-16-16-16h-38.08L350.4 40.97c-4.16-8-13.76-11.2-21.44-7.36l-37.12 18.56-5.44-11.2c-4.16-8-13.76-11.2-21.44-7.36l-124.8 62.4H48c-26.56 0-48 21.44-48 48v288c0 26.56 21.44 48 48 48h416c8.96 0 16-7.04 16-16v-80h-64c-35.2 0-64-28.8-64-64s28.8-64 64-64zm-16-128v12.16l-6.08-12.16H400zM32.96 149.45c-.64-1.6-.96-3.52-.96-5.44 0-8.96 7.04-16 16-16h28.16l-43.2 21.44zm50.88 10.56 181.12-90.56 45.12 90.56H83.84zm262.08 0-39.68-79.36 22.72-11.2 45.12 90.56h-28.16z"/>
</svg>
